<svg xmlns="http://www.w3.org/2000/svg" viewBox="0 0 100 125" x="0px" y="0px"><title>Artboard 21</title><g data-name="Webpage, home, house, residence"><path d="M83,36.17,51.22,11.67a2,2,0,0,0-2.44,0L17,36.17a2,2,0,0,0-.78,1.58v49a2,2,0,0,0,2,2H81.74a2,2,0,0,0,2-2v-49A2,2,0,0,0,83,36.17ZM79.74,84.75H20.26v-46L50,15.78,79.74,38.73Z"/><path d="M33.52,73.94a2,2,0,0,0,2,2h29a2,2,0,1,0,0-4h-29A2,2,0,0,0,33.52,73.94Z"/></g><text x="0" y="115" fill="#000000" font-size="5px" font-weight="bold" font-family="'Helvetica Neue', Helvetica, Arial-Unicode, Arial, Sans-serif">Created by Manglayang studio</text><text x="0" y="120" fill="#000000" font-size="5px" font-weight="bold" font-family="'Helvetica Neue', Helvetica, Arial-Unicode, Arial, Sans-serif">from the Noun Project</text></svg>