<?xml version="1.0" encoding="utf-8"?>
<!-- Generator: Adobe Illustrator 23.0.2, SVG Export Plug-In . SVG Version: 6.00 Build 0)  -->
<svg version="1.1" id="Layer_1" xmlns="http://www.w3.org/2000/svg" xmlns:xlink="http://www.w3.org/1999/xlink" x="0px" y="0px"
	 viewBox="0 0 100 125" style="enable-background:new 0 0 100 125;" xml:space="preserve">
<style type="text/css">
	.st0{fill:#FFFFFF;}
</style>
<title>Artboard 21</title>
<g>
	<path class="st0" d="M83,36.2L51.2,11.7c-0.7-0.6-1.7-0.6-2.4,0L17,36.2c-0.5,0.4-0.8,1-0.8,1.6v49c0,1.1,0.9,2,2,2h63.5
		c1.1,0,2-0.9,2-2v-49C83.7,37.1,83.5,36.6,83,36.2z M79.7,84.7H20.3v-46l29.7-23l29.7,22.9V84.7z"/>
	<path class="st0" d="M33.5,73.9c0,1.1,0.9,2,2,2h29c1.1,0,2-0.9,2-2s-0.9-2-2-2h-29C34.4,71.9,33.5,72.8,33.5,73.9
		C33.5,73.9,33.5,73.9,33.5,73.9z"/>
</g>
</svg>
