<?xml version="1.0" encoding="utf-8"?>
<!-- Generator: Adobe Illustrator 23.0.2, SVG Export Plug-In . SVG Version: 6.00 Build 0)  -->
<svg version="1.1"
	 id="Layer_1" xmlns:cc="http://creativecommons.org/ns#" xmlns:dc="http://purl.org/dc/elements/1.1/" xmlns:inkscape="http://www.inkscape.org/namespaces/inkscape" xmlns:rdf="http://www.w3.org/1999/02/22-rdf-syntax-ns#" xmlns:sodipodi="http://sodipodi.sourceforge.net/DTD/sodipodi-0.dtd" xmlns:svg="http://www.w3.org/2000/svg"
	 xmlns="http://www.w3.org/2000/svg" xmlns:xlink="http://www.w3.org/1999/xlink" x="0px" y="0px" viewBox="0 0 100 125"
	 style="enable-background:new 0 0 100 125;" xml:space="preserve">
<g transform="translate(0,-952.36218)">
	<path d="M50,963.4c-14.9,0-27,12.6-27,28c0,5.6,1.6,9.8,4.3,14.1l21.9,35.4c0.3,0.5,0.9,0.6,1.4,0.3c0.1-0.1,0.2-0.2,0.3-0.3
		l21.9-35.4c2.7-4.3,4.3-8.5,4.3-14.1C77,975.9,64.9,963.4,50,963.4z M50,965.4c13.8,0,25,11.6,25,26c0,5.2-1.4,8.9-4,13.1l-21,34
		l-21-34c-2.5-4.1-4-7.9-4-13.1C25,977,36.2,965.4,50,965.4z M50,977.4c-7.2,0-13,5.8-13,13c0,7.2,5.8,13,13,13s13-5.8,13-13
		S57.2,977.4,50,977.4z M50,979.4c6.1,0,11,4.9,11,11c0,6.1-4.9,11-11,11s-11-4.9-11-11C39,984.3,43.9,979.4,50,979.4z"/>
</g>
</svg>
