<?xml version="1.0" encoding="utf-8"?>
<!-- Generator: Adobe Illustrator 23.0.2, SVG Export Plug-In . SVG Version: 6.00 Build 0)  -->
<svg version="1.1" id="Layer_1" xmlns="http://www.w3.org/2000/svg" xmlns:xlink="http://www.w3.org/1999/xlink" x="0px" y="0px"
	 viewBox="0 0 100 125" style="enable-background:new 0 0 100 125;" xml:space="preserve">
<style type="text/css">
	.st0{fill:none;}
</style>
<g>
	<g>
		<path class="st0" d="M49.6,53.5c0.2-0.2,0.4-0.3,0.5-0.5c0.2-0.2,0.4-0.4,0.6-0.5c0.4-0.3,0.7-0.6,1-1c0.8-0.8,1.5-1.6,2.3-2.7
			c3.3-4.3,5.1-9.5,5.2-14.9c-0.2-6.6-2.8-12.9-7.5-17.6c-5-5-11.6-7.5-18.2-7.5c-6.6,0-13.2,2.5-18.2,7.5
			c-4.7,4.7-7.4,10.9-7.5,17.6c0.1,6.6,2.8,12.9,7.5,17.6C24.7,60.7,39.4,61.6,49.6,53.5C49.6,53.5,49.6,53.5,49.6,53.5z M48.4,49.5
			c0-0.4,0.1-0.7,0.4-1c0.5-0.5,1-1,1.4-1.6c0,0,0,0,0,0s0,0,0,0c0,0,0,0,0,0l0,0c0.2-0.2,0.3-0.4,0.5-0.6l0.2-0.3l0.2-0.3
			c0,0,0.1-0.1,0.1-0.1c0.1-0.1,0.2-0.2,0.2-0.3c0.1-0.2,0.3-0.4,0.4-0.6c0.1-0.2,0.2-0.4,0.3-0.6l0.1-0.1v0c0,0,0,0,0,0
			c0-0.1,0.1-0.2,0.1-0.2c0-0.1,0.1-0.2,0.1-0.2l0,0c0.1-0.2,0.2-0.5,0.4-0.7c0.1-0.3,0.3-0.6,0.4-0.8v0c0,0,0,0,0,0c0,0,0,0,0,0v0
			l0.1-0.3v0c0.1-0.3,0.2-0.6,0.4-1c0.1-0.3,0.2-0.5,0.3-0.8c0,0,0,0,0,0c0,0,0-0.1,0-0.1c0.3-0.7,1.1-1.2,1.8-0.9
			c0.6,0.2,1,0.8,1,1.3c0,0.1,0,0.3-0.1,0.4c0,0,0,0.1,0,0.1c0,0,0,0,0,0c0,0,0,0,0,0c0,0,0,0,0,0c0,0,0,0,0,0
			c-0.1,0.3-0.2,0.6-0.3,0.9c-0.1,0.4-0.3,0.8-0.4,1.1c0,0,0,0,0,0v0c0,0.1-0.1,0.2-0.1,0.2l0,0.1v0c-0.1,0.3-0.3,0.6-0.4,0.8
			c-0.1,0.3-0.3,0.6-0.5,0.9c0,0,0,0,0,0C55,44.9,55,45,54.9,45.1l-0.1,0.2l0,0v0c-0.1,0.2-0.3,0.5-0.4,0.7
			c-0.1,0.2-0.3,0.5-0.5,0.7v0l0,0c0,0,0,0,0,0c0,0,0,0,0,0c-0.1,0.2-0.2,0.3-0.3,0.5c0,0-0.1,0.1-0.1,0.1l-0.2,0.2l-0.2,0.3
			c-0.2,0.3-0.4,0.5-0.6,0.8c0,0,0,0,0,0c-0.5,0.6-1.1,1.2-1.6,1.8c-0.3,0.3-0.7,0.4-1,0.4s-0.7-0.1-1-0.4
			C48.5,50.2,48.4,49.8,48.4,49.5z"/>
		<path class="st0" d="M60.1,56.5l-4.5-4.5l-0.1-0.1c-0.3,0.3-0.5,0.6-0.8,0.9c-0.3,0.3-0.5,0.6-0.8,0.8c-0.4,0.4-0.8,0.8-1.2,1.2
			l0.1,0.1c0,0,0,0,0,0l4.4,4.4L60.1,56.5z"/>
		<path class="st0" d="M92.1,84.7C92.1,84.7,92,84.7,92.1,84.7L64.2,56.9c-0.1-0.1-0.1-0.1-0.2-0.1c-0.1,0-0.1,0-0.2,0.1l-0.6,0.6
			c0,0,0,0,0,0l-4.9,4.9c0,0,0,0,0,0L57.7,63c-0.1,0.1-0.1,0.3,0,0.4l27.8,27.8c0.1,0.1,0.1,0.1,0.2,0.1l0,0c0.1,0,0.1,0,0.2-0.1
			l6.1-6.1C92.1,85,92.1,84.8,92.1,84.7C92.1,84.7,92.1,84.7,92.1,84.7z"/>
		<path d="M50.9,50.5c0.6-0.6,1.1-1.2,1.6-1.8c0,0,0,0,0,0c0.2-0.3,0.4-0.5,0.6-0.8l0.2-0.3l0.2-0.2c0,0,0.1-0.1,0.1-0.1
			c0.1-0.2,0.2-0.3,0.3-0.5c0,0,0,0,0,0s0,0,0,0l0,0v0c0.2-0.2,0.3-0.5,0.5-0.7c0.1-0.2,0.3-0.5,0.4-0.7v0l0,0l0.1-0.2
			c0.1-0.1,0.1-0.2,0.2-0.4c0,0,0,0,0,0c0.2-0.3,0.3-0.6,0.5-0.9c0.1-0.3,0.2-0.5,0.4-0.8v0l0-0.1c0-0.1,0.1-0.2,0.1-0.2v0
			c0,0,0,0,0,0c0.1-0.4,0.3-0.7,0.4-1.1c0.1-0.3,0.2-0.6,0.3-0.9c0,0,0,0,0,0c0,0,0,0,0,0c0,0,0,0,0,0c0,0,0,0,0,0c0,0,0-0.1,0-0.1
			c0-0.1,0.1-0.3,0.1-0.4c0-0.6-0.4-1.1-1-1.3c-0.7-0.3-1.6,0.2-1.8,0.9c0,0,0,0.1,0,0.1c0,0,0,0,0,0c-0.1,0.3-0.2,0.5-0.3,0.8
			c-0.1,0.3-0.2,0.6-0.4,1v0l-0.1,0.3v0c0,0,0,0,0,0c0,0,0,0,0,0v0c-0.1,0.2-0.2,0.5-0.4,0.8c-0.1,0.3-0.2,0.5-0.4,0.7l0,0
			c0,0.1-0.1,0.2-0.1,0.2c0,0.1-0.1,0.2-0.1,0.2c0,0,0,0,0,0v0L52.2,44c-0.1,0.2-0.2,0.4-0.3,0.6c-0.1,0.2-0.3,0.4-0.4,0.6
			c-0.1,0.1-0.2,0.2-0.2,0.3c0,0-0.1,0.1-0.1,0.1l-0.2,0.3l-0.2,0.3c-0.2,0.2-0.3,0.4-0.5,0.6l0,0v0c0,0,0,0,0,0c0,0,0,0,0,0
			c-0.5,0.6-0.9,1.1-1.4,1.6c-0.3,0.3-0.4,0.7-0.4,1s0.1,0.7,0.4,1c0.3,0.3,0.7,0.4,1,0.4S50.6,50.8,50.9,50.5z"/>
		<path d="M94.8,83.6c-0.2-0.4-0.4-0.7-0.7-1L66.3,54.8c-1.1-1.1-2.8-1.2-4-0.4l-4.6-4.6l0,0l0,0l0,0l-0.4-0.4
			c3.2-4.6,4.9-9.9,5-15.6c0,0,0,0,0,0c0,0,0,0,0,0s0,0,0,0c-0.2-7.4-3.1-14.4-8.4-19.6C42.7,3,24.5,3,13.4,14.2
			C8.2,19.4,5.2,26.3,5,33.8c0,0,0,0,0,0c0,0,0,0,0,0c0,0,0,0,0,0c0,0,0,0,0,0c0,0,0,0,0,0c0.2,7.4,3.1,14.4,8.4,19.6
			c0,0,0.1,0.1,0.1,0.1c10,9.9,25.7,11.1,37,2.9l4.9,4.9c-0.9,1.2-0.7,3,0.4,4.1l27.8,27.8c0.6,0.6,1.4,0.9,2.3,0.9c0,0,0,0,0,0
			c0.9,0,1.7-0.3,2.2-0.9l6.1-6.1C95,86.2,95.3,84.8,94.8,83.6z M52.8,54.8l-0.1-0.1c0.4-0.4,0.9-0.8,1.2-1.2
			c0.3-0.3,0.5-0.5,0.8-0.8c0.3-0.3,0.5-0.6,0.8-0.9l0.1,0.1l4.5,4.5l-2.9,2.9L52.8,54.8C52.8,54.8,52.8,54.8,52.8,54.8z M15.4,51.5
			c-4.7-4.7-7.4-11-7.5-17.6c0.2-6.7,2.8-12.9,7.5-17.6c5-5,11.6-7.5,18.2-7.5c6.6,0,13.2,2.5,18.2,7.5c4.7,4.7,7.4,11,7.5,17.6
			c-0.1,5.4-1.9,10.6-5.2,14.9c-0.8,1.1-1.6,2-2.3,2.7c-0.3,0.3-0.7,0.6-1,1c-0.2,0.2-0.4,0.4-0.6,0.5c-0.2,0.2-0.4,0.3-0.5,0.5
			c0,0,0,0,0,0C39.4,61.6,24.7,60.7,15.4,51.5z M92,85.1l-6.1,6.1c-0.1,0.1-0.1,0.1-0.2,0.1l0,0c-0.1,0-0.1,0-0.2-0.1L57.7,63.4
			c-0.1-0.1-0.1-0.3,0-0.4l0.6-0.6c0,0,0,0,0,0l4.9-4.9c0,0,0,0,0,0l0.6-0.6c0.1-0.1,0.1-0.1,0.2-0.1c0.1,0,0.1,0,0.2,0.1L92,84.7
			c0,0,0,0.1,0.1,0.1c0,0,0,0,0,0C92.1,84.8,92.1,85,92,85.1z"/>
	</g>
</g>
</svg>
