<?xml version="1.0" encoding="utf-8"?>
<!-- Generator: Adobe Illustrator 23.0.2, SVG Export Plug-In . SVG Version: 6.00 Build 0)  -->
<svg version="1.1" id="Layer_1" xmlns="http://www.w3.org/2000/svg" xmlns:xlink="http://www.w3.org/1999/xlink" x="0px" y="0px"
	 viewBox="0 0 65 81.2" style="enable-background:new 0 0 65 81.2;" xml:space="preserve">
<g>
	<path d="M50.2-0.3H4.9v50.9c0,4.8,3.9,8.7,8.7,8.8l46.5,5.9V9.6L50.2-0.3z M50.6,2.3l6.9,6.9h-6.9V2.3z M17.7,58.4
		c2.5-1.3,4.3-3.8,4.7-6.7l30.5,11.2L17.7,58.4z M20.9,49.6v1.1c0,4-3.3,7.3-7.3,7.3s-7.2-3.3-7.2-7.3V1.2h42.7v9.5h9.5v52.7
		L20.9,49.6z"/>
	<rect x="10.4" y="15.4" width="13.8" height="1.5"/>
	<rect x="10.4" y="21.3" width="19" height="1.5"/>
	<rect x="10.4" y="27.1" width="19" height="1.5"/>
	<rect x="10.4" y="33" width="19" height="1.5"/>
	<rect x="10.4" y="38.9" width="19" height="1.5"/>
	<rect x="10.4" y="44.8" width="19" height="1.5"/>
	<rect x="34.9" y="15.4" width="13.8" height="1.5"/>
	<rect x="34.9" y="21.3" width="19" height="1.5"/>
	<rect x="34.9" y="27.1" width="19" height="1.5"/>
	<rect x="34.9" y="33" width="19" height="1.5"/>
	<rect x="34.9" y="38.9" width="19" height="1.5"/>
	<rect x="34.9" y="44.8" width="19" height="1.5"/>
</g>
</svg>
