<?xml version="1.0" encoding="utf-8"?>
<!-- Generator: Adobe Illustrator 23.0.2, SVG Export Plug-In . SVG Version: 6.00 Build 0)  -->
<svg version="1.1" id="Layer_1" xmlns="http://www.w3.org/2000/svg" xmlns:xlink="http://www.w3.org/1999/xlink" x="0px" y="0px"
	 viewBox="0 0 1024 1280" style="enable-background:new 0 0 1024 1280;" xml:space="preserve">
<g>
	<g>
		<g>
			<path d="M884,462c-6.6,0-13.3,0-19.9,0c-18.1,0-36.1,0-54.2,0c-26.7,0-53.4,0-80.1,0c-32.6,0-65.2,0-97.7,0c-35.5,0-71,0-106.6,0
				c-36,0-72,0-108.1,0c-33.6,0-67.2,0-100.8,0c-28.4,0-56.8,0-85.2,0c-20.4,0-40.8,0-61.2,0c-9.7,0-19.3-0.1-29,0
				c-0.4,0-0.8,0-1.2,0c-12.8,0-26.3,5.6-35.4,14.6C96,485.3,89.4,499.5,90,512c0.6,12.9,4.8,26.3,14.6,35.4
				c9.8,9,21.8,14.6,35.4,14.6c6.6,0,13.3,0,19.9,0c18.1,0,36.1,0,54.2,0c26.7,0,53.4,0,80.1,0c32.6,0,65.2,0,97.7,0
				c35.5,0,71,0,106.6,0c36,0,72,0,108.1,0c33.6,0,67.2,0,100.8,0c28.4,0,56.8,0,85.2,0c20.4,0,40.8,0,61.2,0c9.7,0,19.3,0.1,29,0
				c0.4,0,0.8,0,1.2,0c12.8,0,26.3-5.6,35.4-14.6c8.7-8.7,15.2-22.9,14.6-35.4c-0.6-12.9-4.8-26.3-14.6-35.4
				C909.6,467.7,897.5,462,884,462L884,462z"/>
		</g>
	</g>
	<g>
		<g>
			<path d="M884,712c-6.6,0-13.3,0-19.9,0c-18.1,0-36.1,0-54.2,0c-26.7,0-53.4,0-80.1,0c-32.6,0-65.2,0-97.7,0c-35.5,0-71,0-106.6,0
				c-36,0-72,0-108.1,0c-33.6,0-67.2,0-100.8,0c-28.4,0-56.8,0-85.2,0c-20.4,0-40.8,0-61.2,0c-9.7,0-19.3-0.1-29,0
				c-0.4,0-0.8,0-1.2,0c-12.8,0-26.3,5.6-35.4,14.6C96,735.3,89.4,749.5,90,762c0.6,12.9,4.8,26.3,14.6,35.4
				c9.8,9,21.8,14.6,35.4,14.6c6.6,0,13.3,0,19.9,0c18.1,0,36.1,0,54.2,0c26.7,0,53.4,0,80.1,0c32.6,0,65.2,0,97.7,0
				c35.5,0,71,0,106.6,0c36,0,72,0,108.1,0c33.6,0,67.2,0,100.8,0c28.4,0,56.8,0,85.2,0c20.4,0,40.8,0,61.2,0c9.7,0,19.3,0.1,29,0
				c0.4,0,0.8,0,1.2,0c12.8,0,26.3-5.6,35.4-14.6c8.7-8.7,15.2-22.9,14.6-35.4c-0.6-12.9-4.8-26.3-14.6-35.4
				C909.6,717.7,897.5,712,884,712L884,712z"/>
		</g>
	</g>
	<g>
		<g>
			<path d="M884,212c-6.6,0-13.3,0-19.9,0c-18.1,0-36.1,0-54.2,0c-26.7,0-53.4,0-80.1,0c-32.6,0-65.2,0-97.7,0c-35.5,0-71,0-106.6,0
				c-36,0-72,0-108.1,0c-33.6,0-67.2,0-100.8,0c-28.4,0-56.8,0-85.2,0c-20.4,0-40.8,0-61.2,0c-9.7,0-19.3-0.1-29,0
				c-0.4,0-0.8,0-1.2,0c-12.8,0-26.3,5.6-35.4,14.6C96,235.3,89.4,249.5,90,262c0.6,12.9,4.8,26.3,14.6,35.4
				c9.8,9,21.8,14.6,35.4,14.6c6.6,0,13.3,0,19.9,0c18.1,0,36.1,0,54.2,0c26.7,0,53.4,0,80.1,0c32.6,0,65.2,0,97.7,0
				c35.5,0,71,0,106.6,0c36,0,72,0,108.1,0c33.6,0,67.2,0,100.8,0c28.4,0,56.8,0,85.2,0c20.4,0,40.8,0,61.2,0c9.7,0,19.3,0.1,29,0
				c0.4,0,0.8,0,1.2,0c12.8,0,26.3-5.6,35.4-14.6c8.7-8.7,15.2-22.9,14.6-35.4c-0.6-12.9-4.8-26.3-14.6-35.4
				C909.6,217.7,897.5,212,884,212L884,212z"/>
		</g>
	</g>
</g>
</svg>
