<?xml version="1.0" encoding="utf-8"?>
<!-- Generator: Adobe Illustrator 23.0.2, SVG Export Plug-In . SVG Version: 6.00 Build 0)  -->
<svg version="1.1" id="Layer_1" xmlns="http://www.w3.org/2000/svg" xmlns:xlink="http://www.w3.org/1999/xlink" x="0px" y="0px"
	 viewBox="0 0 6.8 8.5" style="enable-background:new 0 0 6.8 8.5;" xml:space="preserve">
<g>
	<path d="M3.4,5.6L2.1,3.6l0,0l0,0l0,0C1.9,3.3,1.9,3,1.9,2.7C1.9,2.5,1.9,2.2,2,2c0.1-0.2,0.3-0.4,0.5-0.6c0.2-0.2,0.5-0.3,0.9-0.3
		c0.3,0,0.6,0.1,0.9,0.3C4.5,1.6,4.7,1.8,4.8,2C4.9,2.2,5,2.5,5,2.7C5,3,4.9,3.3,4.7,3.6l0,0l0,0c0,0,0,0,0,0L3.5,5.6l0,0
		C3.5,5.7,3.4,5.7,3.4,5.6C3.4,5.6,3.4,5.6,3.4,5.6z M2.2,3.5l1.2,2l1.2-2c0,0,0,0,0,0l0,0C4.7,3.2,4.8,3,4.8,2.7
		c0-0.2-0.1-0.5-0.2-0.7C4.6,1.8,4.4,1.7,4.2,1.5C4,1.4,3.7,1.3,3.4,1.3S2.8,1.4,2.6,1.5C2.4,1.7,2.3,1.8,2.2,2C2.1,2.2,2,2.5,2,2.7
		C2,3,2.1,3.2,2.2,3.5C2.2,3.5,2.2,3.5,2.2,3.5C2.2,3.5,2.2,3.5,2.2,3.5z"/>
	<path d="M3.4,1.9c0.2,0,0.3,0.1,0.4,0.2C3.9,2.2,4,2.3,4,2.5S3.9,2.8,3.8,2.9C3.7,3,3.6,3.1,3.4,3.1S3.1,3,3,2.9
		C2.9,2.8,2.8,2.6,2.8,2.5S2.9,2.2,3,2C3.1,1.9,3.2,1.9,3.4,1.9z M3.7,2.1C3.7,2.1,3.5,2,3.4,2C3.3,2,3.2,2.1,3.1,2.1
		C3,2.2,3,2.3,3,2.5S3,2.7,3.1,2.8c0.1,0.1,0.2,0.1,0.3,0.1c0.1,0,0.2-0.1,0.3-0.1c0.1-0.1,0.1-0.2,0.1-0.3C3.9,2.3,3.8,2.2,3.7,2.1
		z"/>
</g>
</svg>
